<?xml version="1.0" encoding="utf-8"?>
<!-- Generator: Adobe Illustrator 27.5.0, SVG Export Plug-In . SVG Version: 6.00 Build 0)  -->
<svg version="1.1" xmlns="http://www.w3.org/2000/svg" xmlns:xlink="http://www.w3.org/1999/xlink" x="0px" y="0px"
	 viewBox="0 0 499.999 500" style="enable-background:new 0 0 499.999 500;" xml:space="preserve">
<g id="BACKGROUND">
</g>
<g id="OBJECTS">
	<g>
		<path style="fill:#D9E8DA;" d="M374.328,87.598c-5.879-3.597-12.158-6.485-18.79-8.428c-13.28-3.89-27.348-3.859-41.186-3.797
			c-36.613,0.164-73.58,2.913-109.91-2.225c-16.21-2.292-32.377-5.732-48.747-5.469c-50.456,0.813-84.139,42.673-100.027,86.358
			c-10.894,29.951-19.164,70.066-14.92,101.82c2.87,21.472,1.149,41.924,6.387,63.507c9.385,38.676,20.675,80.391,52.176,104.713
			c21.127,16.312,48.36,22.205,74.804,25.837c56.41,7.746,113.947,7.234,170.21-1.515c20.323-3.16,40.784-7.494,59.018-17.009
			c25.949-13.541,43.826-36.068,44.977-65.909c0.866-22.438-8.17-42.733-11.772-64.381c-3.619-21.748-5.359-43.754-8.746-65.536
			c-4.321-27.788,2.724-55.75-5.058-83.475c-4.38-15.607-12.625-29.999-23.104-42.366C392.38,101.156,383.88,93.442,374.328,87.598z
			"/>
		<g>
			<g>
				<defs>
					<path id="SVGID_1_" d="M384.543,74.38c-12.092-7.549-25.462-12.808-39.589-14.608c-24.792-3.158-46.119,5.643-69.763,10.653
						c-21.153,4.482-42.278,9.625-64.092,10.709c-16.668,0.828-33.471-0.088-49.972,2.407
						c-24.351,3.683-51.529,19.298-69.079,36.488c-20.479,20.058-34.761,45.918-43.916,72.906
						c-7.028,20.718-10.286,41.222-7.386,62.923c2.87,21.472,1.149,41.924,6.387,63.508c9.385,38.676,20.675,80.391,52.176,104.713
						c21.127,16.312,48.36,22.205,74.804,25.837c56.41,7.746,113.947,7.234,170.21-1.515c20.323-3.16,40.784-7.494,59.018-17.009
						c18.234-9.515,34.208-24.831,40.674-44.355c7.356-22.212,1.584-45.587-2.692-67.779c-4.275-22.185-2.226-37.983,0.263-59.739
						c3.402-29.735,9.944-59.752,5.488-89.747c-3.871-26.059-16.11-50.593-33.467-70.412
						C405.197,89.755,395.383,81.147,384.543,74.38z"/>
				</defs>
				<clipPath id="SVGID_00000075843891071621708280000002792731764228406174_">
					<use xlink:href="#SVGID_1_"  style="overflow:visible;"/>
				</clipPath>
				<path style="clip-path:url(#SVGID_00000075843891071621708280000002792731764228406174_);fill:#556960;" d="M277.111,254.745
					c-1.693-5.456-3.523-10.856-6.024-15.982c-4.003-8.206-9.733-15.764-11.595-24.702c-3.996-19.186,17.261-47.25,31.368-22.753
					c7.967,13.836,7.335,30.534,12.499,45.227c4.169,11.863,3.082,33.028-3.557,43.687c-1.541,2.474-3.849,4.895-6.763,4.937
					c-3.699,0.053-6.245-3.623-7.81-6.975C281.73,270.689,279.565,262.657,277.111,254.745z"/>
				
					<path style="opacity:0.58;clip-path:url(#SVGID_00000075843891071621708280000002792731764228406174_);fill:none;stroke:#000000;stroke-miterlimit:10;" d="
					M277.555,205.335c12.338,39.197,24.801,80.616,15.946,120.744"/>
				<path style="clip-path:url(#SVGID_00000075843891071621708280000002792731764228406174_);fill:#556960;" d="M268.944,245.086
					c-6.758-10.031-15.996-15.82-27.864-8.562c-3.855,2.358-6.728,5.983-9.889,9.212c-5.164,5.275-11.273,9.624-17.948,12.776
					c-2.318,1.095-4.755,2.08-6.634,3.823c-1.88,1.743-3.1,4.491-2.238,6.906c8.239,23.086,40.159,3.166,50.639-7.563
					c-1.03,1.054,31.355,47.698,27.762,22.28C281.479,274.814,276.952,256.973,268.944,245.086z"/>
				<path style="clip-path:url(#SVGID_00000075843891071621708280000002792731764228406174_);fill:#556960;" d="M337.646,246.821
					c0.347-0.276,0.699-0.545,1.059-0.805c4.268-3.092,9.367-4.883,14.547-5.853c5.962-1.117,12.309-1.154,17.897,1.204
					c7.759,3.275,13.333,11.644,12.477,20.022c-0.856,8.378-8.72,15.698-17.123,15.135c-3.147-0.211-6.186-1.399-9.342-1.434
					c-12.108-0.132-17.472,14.167-29.355,16.577c-5.173,1.049-28.549,2.316-32.031-1.472c-3.438-3.74-0.335-11.49,1.952-14.915
					c7.857-11.77,20.857-10.685,30.286-19.233C331.309,253.06,334.175,249.584,337.646,246.821z"/>
				
					<path style="clip-path:url(#SVGID_00000075843891071621708280000002792731764228406174_);fill:none;stroke:#000000;stroke-width:4;stroke-miterlimit:10;" d="
					M73.054,458.595"/>
				
					<path style="clip-path:url(#SVGID_00000075843891071621708280000002792731764228406174_);fill:none;stroke:#000000;stroke-width:4;stroke-miterlimit:10;" d="
					M73.054,284.419"/>
				<path style="clip-path:url(#SVGID_00000075843891071621708280000002792731764228406174_);fill:#CE9B40;" d="M376.685,350.609
					c-1.869-12.807-5.287-28.019-3.105-40.942c0.897-5.312,1.628-9.353,1.166-14.951c-0.561-6.792-1.563-13.547-2.998-20.209
					c-2.034-9.445-4.133-20.184-9.067-28.585c-1.867-3.179-22.987,7.469-27.091,6.858c-9.976-1.487-20.209-3.283-30.269-3.628
					c-1.416,11.09-1.675,21.957-4.135,33.572c-3.032,14.31-5.745,28.688-8.138,43.119c-4.668,28.152-11.237,55.252-11.623,84.072
					c-0.153,11.468,0.343,22.946,1.493,34.358c0.495,4.907,0.795,9.649,0.948,14.501c0.124,3.939,1.389,9.051,4.702,11.509
					c2.909,2.159,7.085,1.963,10.312,0.316c3.227-1.648,5.657-4.512,7.721-7.49c8.112-11.708,11.721-25.909,14.303-39.917
					c3.971-21.539,5.877-43.459,5.684-65.36c0.274,5.521,2.136,10.675,2.582,16.194c0.922,11.408,3.631,23.164,5.605,34.548
					c2.298,13.253,5.385,26.433,10.401,38.943c1.847,4.607,4.001,9.189,7.336,12.864c3.335,3.676,8.029,6.375,12.992,6.323
					c7.876-0.083,14.269-7.057,16.561-14.594c3.3-10.851-0.036-22.137,0.142-33.193c0.126-7.849-0.949-15.337-0.917-23.207
					c0.039-9.471-0.936-18.911-2.184-28.288C378.359,361.82,377.503,356.217,376.685,350.609z"/>
				<polygon style="clip-path:url(#SVGID_00000075843891071621708280000002792731764228406174_);fill:#C7C0C1;" points="
					244.133,434.611 392.121,391.44 392.121,345.973 244.133,383.101 				"/>
				
					<path style="clip-path:url(#SVGID_00000075843891071621708280000002792731764228406174_);fill:none;stroke:#000000;stroke-miterlimit:10;" d="
					M319.271,273.375c3.799,13.722,3.871,38.447,2.944,52.655"/>
				<polygon style="clip-path:url(#SVGID_00000075843891071621708280000002792731764228406174_);fill:#FFFFFF;" points="
					424.545,342.586 192.123,246.323 47.75,272.87 251.913,389.822 				"/>
				
					<line style="clip-path:url(#SVGID_00000075843891071621708280000002792731764228406174_);fill:none;stroke:#000000;stroke-miterlimit:10;" x1="270.047" y1="384.86" x2="424.545" y2="342.586"/>
				<g style="clip-path:url(#SVGID_00000075843891071621708280000002792731764228406174_);">
					<polygon points="284.56,311.364 312.457,304.907 312.417,302.235 252.41,275.431 225.826,279.396 225.865,282.068 					"/>
					<polygon style="fill:#B4AEAF;" points="284.52,308.692 312.417,302.235 249.75,273.414 225.826,279.396 					"/>
					<path style="fill:#D6CECE;" d="M276.177,298.991c-1.188,0.473-2.367,0.964-3.539,1.474l4.809,2.413
						c1.266-0.474,2.535-0.936,3.805-1.399L276.177,298.991z"/>
					<path style="fill:#D6CECE;" d="M252.981,287.622c-1.186,0.373-2.359,0.781-3.525,1.211l4.512,2.264
						c1.076-0.52,2.17-0.993,3.3-1.374L252.981,287.622z"/>
					<path style="fill:#D6CECE;" d="M239.898,281.21l-3.626-1.777l-3.597,0.981l3.948,1.981
						C237.697,281.945,238.788,281.55,239.898,281.21z"/>
					<path style="fill:#D6CECE;" d="M241.148,281.823c-1.157,0.307-2.287,0.696-3.4,1.136l5.137,2.578
						c1.073-0.431,2.147-0.859,3.222-1.283L241.148,281.823z"/>
					<path style="fill:#D6CECE;" d="M247.236,284.807c-1.081,0.423-2.159,0.857-3.237,1.289l4.321,2.168
						c1.144-0.434,2.296-0.846,3.457-1.231L247.236,284.807z"/>
					<path style="fill:#D6CECE;" d="M258.509,290.332c-1.197,0.337-2.353,0.781-3.48,1.298l5.005,2.511
						c1.087-0.499,2.182-0.982,3.281-1.453L258.509,290.332z"/>
					<path style="fill:#D6CECE;" d="M264.423,293.23c-1.112,0.468-2.216,0.951-3.315,1.45l4.908,2.462
						c1.122-0.525,2.257-1.02,3.417-1.456L264.423,293.23z"/>
					<path style="fill:#D6CECE;" d="M270.608,296.261c-1.2,0.413-2.371,0.893-3.525,1.416l4.466,2.241
						c1.159-0.512,2.327-1.002,3.5-1.48L270.608,296.261z"/>
					<path style="fill:#D6CECE;" d="M283.001,302.335c-0.027,0.013-0.044,0.033-0.074,0.044c-1.253,0.437-2.494,0.905-3.736,1.373
						l5.366,2.693l4.324-1.228L283.001,302.335z"/>
					<path style="fill:#D6CECE;" d="M244.139,278.308l-1.693-0.795l-4.274,1.166l2.409,1.167
						C241.768,279.338,242.954,278.825,244.139,278.308z"/>
					<path style="fill:#D6CECE;" d="M245.258,278.834c-1.189,0.521-2.379,1.036-3.571,1.548l3.569,1.729
						c1.311-0.486,2.626-0.963,3.946-1.425L245.258,278.834z"/>
					<path style="fill:#D6CECE;" d="M250.361,281.231c-0.043,0.036-0.092,0.069-0.154,0.09c-1.268,0.435-2.529,0.892-3.787,1.354
						l3.801,1.841c1.247-0.558,2.503-1.092,3.78-1.576L250.361,281.231z"/>
					<path style="fill:#D6CECE;" d="M255.191,283.499c-1.313,0.466-2.604,0.988-3.879,1.546l4.039,1.957
						c1.298-0.486,2.576-1.013,3.809-1.638L255.191,283.499z"/>
					<path style="fill:#D6CECE;" d="M260.235,285.868c-1.201,0.654-2.454,1.197-3.729,1.693l5.607,2.716
						c1.261-0.581,2.521-1.165,3.779-1.753L260.235,285.868z"/>
					<path style="fill:#D6CECE;" d="M266.953,289.023c-0.036,0.038-0.077,0.074-0.135,0.101c-1.205,0.563-2.412,1.121-3.62,1.679
						l4.381,2.122c1.274-0.602,2.546-1.208,3.817-1.815L266.953,289.023z"/>
					<path style="fill:#D6CECE;" d="M272.49,291.624c-1.276,0.612-2.555,1.218-3.834,1.823l4.169,2.02
						c1.294-0.594,2.59-1.186,3.873-1.805c0.029-0.014,0.057-0.014,0.086-0.022L272.49,291.624z"/>
					<path style="fill:#D6CECE;" d="M277.356,293.909c0.096,0.197,0.071,0.44-0.185,0.563c-1.081,0.521-2.173,1.018-3.263,1.52
						l5.597,2.712c1.438-0.66,2.894-1.272,4.405-1.716L277.356,293.909z"/>
					<path style="fill:#D6CECE;" d="M285.246,297.615c-1.605,0.37-3.142,0.951-4.651,1.617l10.642,5.156l5.253-1.491
						L285.246,297.615z"/>
					<path style="fill:#D6CECE;" d="M251.358,276.474l-2.221-1.043l-4.275,1.166l2.339,1.133
						C248.589,277.318,249.973,276.894,251.358,276.474z"/>
					<path style="fill:#D6CECE;" d="M255.581,278.458l-2.955-1.388c-1.392,0.427-2.785,0.848-4.181,1.263l3.244,1.572
						C252.982,279.408,254.28,278.93,255.581,278.458z"/>
					<path style="fill:#D6CECE;" d="M260.329,280.688l-3.557-1.671c-1.313,0.477-2.626,0.953-3.934,1.443l3.873,1.876
						C257.913,281.779,259.118,281.227,260.329,280.688z"/>
					<path style="fill:#D6CECE;" d="M266.005,283.354l-4.563-2.143c-1.222,0.536-2.435,1.091-3.646,1.652l4.526,2.193
						C263.562,284.512,264.789,283.944,266.005,283.354z"/>
					<path style="fill:#D6CECE;" d="M272.103,286.217l-5.015-2.355c-1.21,0.604-2.434,1.176-3.67,1.724l4.829,2.339
						C269.495,287.263,270.775,286.674,272.103,286.217z"/>
					<path style="fill:#D6CECE;" d="M283.59,291.612l-4.565-2.144c-1.227,0.623-2.449,1.256-3.662,1.905l4.362,2.113
						C280.986,292.799,282.271,292.165,283.59,291.612z"/>
					<path style="fill:#D6CECE;" d="M296.145,297.509l-4.408-2.07c-1.358,0.638-2.72,1.267-4.087,1.887l4.406,2.134
						C293.409,298.788,294.767,298.127,296.145,297.509z"/>
					<path style="fill:#D6CECE;" d="M297.275,298.039c-1.402,0.61-2.788,1.257-4.16,1.933l4.814,2.332l5.253-1.491L297.275,298.039z
						"/>
					<path style="fill:#D6CECE;" d="M290.641,294.924l-5.895-2.769c-1.364,0.521-2.683,1.151-3.976,1.837l5.791,2.806
						C287.923,296.18,289.284,295.556,290.641,294.924z"/>
					<path style="fill:#D6CECE;" d="M277.955,288.966l-4.59-2.156c-1.408,0.395-2.753,0.965-4.061,1.628l5.026,2.435
						C275.532,290.224,276.74,289.588,277.955,288.966z"/>
				</g>
				<path style="clip-path:url(#SVGID_00000075843891071621708280000002792731764228406174_);fill:#FFB396;" d="M249.301,277.613
					c-0.35,0.309-0.695,0.623-1.037,0.94c-1.643,1.52-3.368,3.532-2.873,5.715c0.396,1.748,2.175,2.905,3.952,3.147
					c4.959,0.674,9.043-2.878,13-5.201c0.385-0.226,0.83-0.447,1.272-0.349c0.526,0.116,0.831,0.639,0.946,1.135
					c0.399,1.731-1.043,3.954,0.511,5.174c1.466-1.204,2.372-3.331,3.014-5.11c0.51-1.412,0.852-2.887,1.565-4.22
					c1.872-3.501,5.52-4.607,8.324-7.096c3.041-2.7,0.373-4.969-2.949-5.541c-5.99-1.031-13.899,4.758-19.071,7.197
					c-1.243,0.586-2.49,1.175-3.652,1.909C251.234,275.987,250.249,276.778,249.301,277.613z"/>
				<path style="clip-path:url(#SVGID_00000075843891071621708280000002792731764228406174_);fill:#FFF5F5;" d="M300.264,213.13
					c-4.49,15.505-10.551,31.748-23.624,41.219c-3.024,2.191-6.39,3.988-8.919,6.735c-2.529,2.747-4.084,6.844-2.575,10.259
					c1.501,3.398,5.452,4.988,9.131,5.504c7.609,1.068,15.319-1.036,22.446-3.908c28.792-11.6,51.818-36.677,60.925-66.352
					c2.437-7.94,3.925-16.376,2.483-24.555c-3.014-17.099-22.359-28.752-37.832-17.803
					C308.903,173.708,304.453,198.667,300.264,213.13z"/>
				<path style="clip-path:url(#SVGID_00000075843891071621708280000002792731764228406174_);fill:#FFFFFF;" d="M350.974,251.473
					c2.942-0.447,5.955-1.089,8.512-2.235c2.837-1.272,3.662-4.081,5.158-6.717c0.954-1.681,1.948-3.422,3.23-4.895
					c-0.455-14.482-0.429-28.98,0.09-43.46c0.303-8.451,1.615-15.652-1.918-23.432c-2.825-6.22-6.327-12.51-12.965-15.278
					c-15.528-6.474-33.29,5.56-39.404,19.181c-5.178,11.536-8.841,23.458-12.523,35.522c-2.102,6.888-4.18,14.465-1.373,21.097
					c1.263,2.984,3.418,5.487,5.539,7.936c2.373,2.74,4.788,5.517,7.826,7.494c2.652,1.726,5.685,2.778,8.742,3.594
					c8.133,2.17,16.681,2.735,25.035,1.727C348.221,251.85,349.59,251.683,350.974,251.473z"/>
				<path style="clip-path:url(#SVGID_00000075843891071621708280000002792731764228406174_);fill:#CE9B40;" d="M305.865,238.821
					c-2.298,10.549-4.596,21.097-6.894,31.645c-0.159,0.728-0.318,1.466-0.285,2.211c0.125,2.829,2.859,4.77,5.426,5.966
					c9.93,4.625,21.831,4.808,31.899,0.49c2.329-0.999,4.684-2.344,5.896-4.57c1.667-3.06,0.723-6.835-0.388-10.138
					c-1.57-4.667-3.406-9.245-5.494-13.705C330.064,237.993,317.876,239.494,305.865,238.821z"/>
				<path style="clip-path:url(#SVGID_00000075843891071621708280000002792731764228406174_);fill:#FFB396;" d="M285.063,282.496
					c-2.043,0.913-4.032,1.921-5.871,3.192c-2.145,1.482-4.125,3.421-4.889,5.913c-0.763,2.492,0.036,5.593,2.331,6.831
					c2.592,1.398,5.75,0.028,8.362-1.333c7.109-3.705,15.716-6.711,21.493-12.236c2.395-2.31,4.972-5.176,4.499-8.469
					c-1.238-8.62-9.373-2.555-13.4,0.15C293.747,279.121,289.289,280.607,285.063,282.496z"/>
				<path style="clip-path:url(#SVGID_00000075843891071621708280000002792731764228406174_);fill:#FFF5F5;" d="M379.719,207.447
					c-0.698,19.549-10.561,38.009-24.297,51.936c-13.736,13.927-31.12,23.733-49.045,31.566
					c-7.844-2.287-10.845-12.554-8.307-20.321c2.538-7.766,8.845-13.592,14.704-19.286c14.662-14.25,28.694-31.659,29.331-52.095
					c0.217-6.967-1.165-13.913-0.917-20.879c0.61-17.127,11.713-24.369,24.026-11.138
					C375.164,177.922,380.237,192.934,379.719,207.447z"/>
				<g style="clip-path:url(#SVGID_00000075843891071621708280000002792731764228406174_);">
					<path style="fill:#695F69;" d="M182.322,170.336l-55.454-29.312l23.2,87.341l54.426,31.61c1.606,0.757,3.36-0.719,2.888-2.431
						l-23.669-85.776C183.524,171.085,182.999,170.545,182.322,170.336z"/>
					<ellipse style="fill:#695F69;" cx="157.179" cy="277.881" rx="27.75" ry="13.122"/>
					
						<line style="fill:none;stroke:#000000;stroke-width:3;stroke-miterlimit:10;" x1="183.41" y1="170.671" x2="207.723" y2="258.782"/>
					<path d="M162.024,246.23c1.272-7.637,3.685-15.061,6.865-22.125c-0.202-2.536-1.997-4.817-4.697-5.449
						c-0.041-0.01-0.083-0.019-0.124-0.029c-2.788-0.65-5.672,0.773-6.845,3.384c-7.738,17.225-10.169,34.318-6.733,53.313
						c2.896,1.911,9.492,2.392,13.626,0.84C160.674,266.597,160.365,256.193,162.024,246.23z"/>
				</g>
				
					<path style="clip-path:url(#SVGID_00000075843891071621708280000002792731764228406174_);fill:none;stroke:#000000;stroke-miterlimit:10;" d="
					M297.077,276.375c0.641-7.751,5.113-14.693,10.38-20.416c5.268-5.723,11.432-10.576,16.59-16.398
					c6.826-7.705,11.781-17.056,14.323-27.031"/>
				<g style="clip-path:url(#SVGID_00000075843891071621708280000002792731764228406174_);">
					<path style="fill:#7A918C;" d="M390.361,358.608c0.72-10.859,4.481-21.715,11.743-29.82c3.208-3.58,7.038-6.578,10.102-10.282
						c4.235-5.12,6.87-11.422,11.194-16.467c4.324-5.045,11.409-8.776,17.557-6.258c5.987,2.452,8.503,9.883,7.766,16.311
						c-1.051,9.166-7.017,17-13.499,23.565c-6.482,6.566-13.788,12.495-18.741,20.278c-5.362,8.426-7.577,18.401-10.166,28.048
						c-2.433,9.063-8.569,10.98-12.454,2.295C390.309,378.33,389.794,367.15,390.361,358.608z"/>
					<path style="fill:#556960;" d="M366.423,352.54c-3.272-0.019-5.765,2.748-8.107,5.034
						c-13.671,13.342-36.292,16.792-45.836,33.34c-1.219,2.114-2.193,4.567-1.678,6.952c1.04,4.811,7.124,6.395,12.044,6.244
						c20.373-0.624,37.016-14.947,43.843-33.508c1.746,5.994,10.007,25.358,12.445,8.378
						C380.017,372.828,374.732,352.587,366.423,352.54z"/>
					<path style="fill:#556960;" d="M366.075,311.523c-0.63-3.196-0.843-6.429-0.364-9.73c0.609-4.197,2.328-8.153,4.285-11.916
						c2.577-4.955,10.549-11.276,15.285-5.195c2.656,3.411,4.035,7.642,4.961,11.864c3.579,16.316,3.708,44.109-6.818,57.892
						c-2.802-0.525-4.897-2.979-5.955-5.627s-1.3-5.536-1.84-8.335C373.717,330.552,367.983,321.205,366.075,311.523z"/>
					<path style="fill:none;stroke:#000000;stroke-miterlimit:10;" d="M420.643,326.483c-16.537,13.507-20.636,36.967-21.104,58.314
						c-0.468,21.347,1.368,43.652-7.376,63.131"/>
					<path style="fill:none;stroke:#000000;stroke-miterlimit:10;" d="M376.71,453.062c-1.145-15.806,0.883-31.654,1.218-47.498
						c0.334-15.844-1.186-32.259-8.785-46.166c-1.57-2.872-5.178,0.442-7.242,2.983c-4.805,5.914-10.847,10.817-17.622,14.304"/>
					<path style="fill:none;stroke:#000000;stroke-miterlimit:10;" d="M380.09,299.67c3.109,45.832,5.215,91.731,6.318,137.655"/>
					<polygon style="fill:#556596;" points="409.834,460.545 367.189,460.545 356.402,404.118 418.507,404.118 					"/>
				</g>
				<polyline style="clip-path:url(#SVGID_00000075843891071621708280000002792731764228406174_);fill:#B4AEAF;" points="
					63.768,417.096 59.98,278.772 244.602,385.553 244.602,504.91 				"/>
				<path style="clip-path:url(#SVGID_00000075843891071621708280000002792731764228406174_);fill:#FFB396;" d="M308.299,141.351
					c1.257,2.774,4.787,8.523,8.384,8.272c1.932-0.135,3.849-0.48,5.707-1.028c1.013,2.467,2.026,4.934,3.039,7.401
					c0.222,0.54,0.447,1.095,0.459,1.678c0.013,0.58-0.186,1.142-0.382,1.688c-1.038,2.894-3.374,7.265-3.374,10.356
					c-0.721,2.616,0.041,7.217,2.474,8.421c1.608,0.796,1.769,0.185,3.146-0.868c1.539-1.177,3.763-3.376,4.918-4.931
					c4.401-5.922,10.437-10.602,17.238-13.454c2.025-0.849,2.42-3.511,0.777-4.969c-2.491-2.211-4.521-4.8-4.942-8.028
					c-0.224-1.72,0.048-3.462,0.319-5.175c1.824-11.516,1.729-18.309-5.217-28.917c-2.476-3.782-5.94-6.884-10.103-8.644
					c-13.438-5.683-22.725,6.351-24.444,17.725C305.272,127.672,305.538,135.256,308.299,141.351z"/>
				<path style="clip-path:url(#SVGID_00000075843891071621708280000002792731764228406174_);" d="M329.255,146.869
					c-1.704,1.046-3.674,1.523-5.629,1.989c-0.437,0.104-0.885,0.194-1.336,0.275c0.035,0.085,0.075,0.168,0.11,0.254
					c0.514,1.128,1.084,2.227,1.766,3.265c2.671-1.373,5.375-4.335,5.553-5.714C329.596,146.915,329.439,146.891,329.255,146.869z"
					/>
				<path style="clip-path:url(#SVGID_00000075843891071621708280000002792731764228406174_);" d="M346.177,103.549
					c3.149,4.332,5.921,9.239,9.723,12.23c5.855,4.607,14.337,6.032,16.349,14.748c0.835,3.617,0.219,7.437-1.556,10.697
					c-4.035,7.41-12.317,10.765-20.394,11.419c-3.687,0.298-7.518,0.073-10.872-1.49c-10.304-4.803-7.413-19.731-11.29-28.397
					c-1.277-2.855-3.356-5.471-6.206-6.759l-0.073,5.599c-0.02,1.559-1.31,2.802-2.869,2.765l-18.23-0.434
					c-3.225-0.077,0.431-14.058,0.991-15.472c1.581-3.991,2.972-5.558,6.845-7.663c7.881-4.284,20.391-8.983,29.196-5.001
					C341.206,97.334,343.799,100.277,346.177,103.549z"/>
				
					<path style="clip-path:url(#SVGID_00000075843891071621708280000002792731764228406174_);fill:none;stroke:#F5ECEC;stroke-miterlimit:10;" d="
					M320.17,153.593c5.315-4.906,8.005-9.726,12.337-13.87c1.608-1.538,3.157-3.407,3.274-5.629
					c0.178-3.372-3.207-6.096-6.574-6.358s-6.596,1.281-9.517,2.975c-5.965,3.459-11.459,7.724-16.32,12.616"/>
				<path style="clip-path:url(#SVGID_00000075843891071621708280000002792731764228406174_);fill:#FFB396;" d="M327.547,139.977
					c-9.253-5.406,0.954-20.611,9.016-12.712c2.056,2.014,2.833,5.159,2.203,7.967c-0.268,1.195-0.779,2.349-1.573,3.281
					c-0.596,0.7-1.343,1.265-2.162,1.681C332.711,141.375,329.794,141.29,327.547,139.977z"/>
				<path style="clip-path:url(#SVGID_00000075843891071621708280000002792731764228406174_);fill:#FFFFFF;" d="M319.453,141.689
					c0.076,0.11,0.151,0.222,0.225,0.335c3.209,4.901,5.739,11.284-1.469,12.645c-4.855,0.917-10.543-0.914-14.739-3.288
					c-2.239-1.267-4.455-3.195-4.651-5.759c-0.305-3.978,4.211-9.523,6.236-12.723c0.269-0.424,0.598-0.885,1.093-0.969
					c0.401-0.068,0.793,0.136,1.148,0.334C311.823,134.773,316.525,137.441,319.453,141.689z"/>
				<path style="clip-path:url(#SVGID_00000075843891071621708280000002792731764228406174_);" d="M328.594,131.108
					c-0.653-0.09-0.112-1.124,0.522-1.303c2.139-0.604,4.727,0.496,5.478,2.587c0.751,2.092-0.851,4.771-3.073,4.817"/>
				<path style="clip-path:url(#SVGID_00000075843891071621708280000002792731764228406174_);fill:#CE9B40;" d="M350.299,152.642
					c0.905,0.559,4.587,1.593,4.587,1.593s-9.262,25.092-14.728,35.036c-0.085,0.154-0.173,0.313-0.314,0.417
					c-0.494,0.367-1.153-0.139-1.561-0.601c-3.886-4.397-8.535-8.119-13.676-10.948c3.157-1.158,5.348-3.967,7.609-6.455
					C338.023,165.298,342.228,155.705,350.299,152.642z"/>
				<path style="clip-path:url(#SVGID_00000075843891071621708280000002792731764228406174_);fill:#CE9B40;" d="M323.443,170.522
					c-0.037,2.715,0.183,5.534,1.49,7.915c-0.108-0.203-10.099,3.181-10.981,3.69c0.108-1.698,0.707-3.321,1.301-4.915
					c1.005-2.696,2.018-5.389,3.038-8.079c0.839-2.213,1.555-5.04,3.286-6.741c0.596-0.586,1.334-1.035,1.825-1.711
					c0.387-0.533,0.702-1.258,1.354-1.351c-0.21,0.753-0.013,1.51-0.113,2.274c-0.094,0.719-0.431,1.397-0.548,2.115
					C323.732,165.968,323.475,168.242,323.443,170.522z"/>
				
					<path style="clip-path:url(#SVGID_00000075843891071621708280000002792731764228406174_);fill:none;stroke:#000000;stroke-miterlimit:10;" d="
					M325.072,178.244c-1.568,9.936-3.559,19.804-5.965,29.571"/>
				
					<path style="clip-path:url(#SVGID_00000075843891071621708280000002792731764228406174_);fill:none;stroke:#000000;stroke-miterlimit:10;" d="
					M305.714,239.184c-4.359-4.281-6.501-10.708-5.582-16.748"/>
			</g>
			<path style="fill:#7A918C;" d="M420.15,321.335c2.712,6.92,5.639,13.751,8.685,20.529c2.145-2.058,4.31-4.1,6.39-6.207
				c6.482-6.566,12.448-14.399,13.499-23.565c0.737-6.428-1.779-13.859-7.766-16.311c-6.149-2.518-13.234,1.213-17.557,6.258
				c-2.619,3.056-4.619,6.572-6.73,10.008C417.785,315.159,418.943,318.257,420.15,321.335z"/>
			<path style="opacity:0.2;fill:#2690AD;" d="M72.932,68.925v205.8l96.066,54.033c0.026-0.455,0.047-0.91,0.082-1.362
				c1.772-22.968,15.067-33.451,29.694-23.415c13.57,9.31,23.512,33.007,23.465,54.723l34.556,19.436V156.403L72.932,68.925z"/>
			<polyline style="opacity:0.66;fill:none;stroke:#FFFFFF;stroke-width:2;stroke-miterlimit:10;" points="256.796,378.139 
				256.796,156.403 72.932,68.925 			"/>
			<line style="fill:none;stroke:#000000;stroke-miterlimit:10;" x1="262.96" y1="396.142" x2="41.622" y2="269.448"/>
			<line style="fill:none;stroke:#000000;stroke-miterlimit:10;" x1="244.476" y1="404.773" x2="244.602" y2="385.553"/>
			<line style="fill:none;stroke:#000000;stroke-miterlimit:10;" x1="244.133" y1="455.895" x2="244.412" y2="415.548"/>
		</g>
		<g>
			<g>
				<path style="fill:#8893B5;" d="M182.883,71.422c-8.252-4.683-13.921-11.395-17.986-19.365c-6.699,2.111-12.92,2.876-18.05,0.566
					c0,0-4.126,23.819,9.283,40.49c4.872,6.058,8.725,10.683,8.735,10.682c0.01,0.012,3.863-0.593,8.735-1.568
					C187.008,99.545,182.883,71.422,182.883,71.422z"/>
				<g>
					<defs>
						<path id="SVGID_00000165955197392502208320000017787687812600366000_" d="M182.883,71.422
							c-8.004-4.587-13.891-11.143-17.986-19.365c-6.077,2.443-12.095,2.669-18.05,0.566c0,0-4.126,23.819,9.283,40.49
							c4.872,6.058,8.725,10.683,8.735,10.682c0.01,0.012,3.863-0.593,8.735-1.568C187.008,99.545,182.883,71.422,182.883,71.422z"
							/>
					</defs>
					<clipPath id="SVGID_00000124125514571990112100000007704980598555075757_">
						<use xlink:href="#SVGID_00000165955197392502208320000017787687812600366000_"  style="overflow:visible;"/>
					</clipPath>
					<path style="clip-path:url(#SVGID_00000124125514571990112100000007704980598555075757_);fill:#C7C0C1;" d="M164.903,114.039
						l33.043,17.238V47.266l-31.436-13.248C164.117,65.678,161.442,91.326,164.903,114.039z"/>
				</g>
			</g>
			<path style="fill:none;stroke:#000000;stroke-miterlimit:10;" d="M164.864,103.794c26.163,0,18.018-32.372,18.018-32.372
				c-8.004-4.587-13.891-11.143-17.986-19.365"/>
			<path style="fill:none;stroke:#000000;stroke-miterlimit:10;" d="M164.864,73.73"/>
			<path style="fill:#707A6C;" d="M162.142,73.73c0,2.332-1.891,4.223-4.223,4.223s-4.223-1.891-4.223-4.223
				c0-2.332,1.891-4.223,4.223-4.223S162.142,71.397,162.142,73.73z"/>
			<path style="fill:#707A6C;" d="M176.664,76.233c0,3.258-2.642,5.9-5.9,5.9c-3.258,0-5.9-2.641-5.9-5.9s2.641-5.9,5.9-5.9
				C174.022,70.333,176.664,72.975,176.664,76.233z"/>
			<path style="fill:#707A6C;" d="M166.718,87.499c0,2.131-1.728,3.859-3.859,3.859c-2.131,0-3.859-1.728-3.859-3.859
				c0-2.131,1.728-3.859,3.859-3.859C164.991,83.641,166.718,85.368,166.718,87.499z"/>
		</g>
	</g>
</g>
</svg>
